<svg width="36" height="36" viewBox="0 0 36 36" fill="none" xmlns="http://www.w3.org/2000/svg">
<path d="M16.8403 5.13046L16.8773 0L18.5285 3.30305C18.6118 3.47665 18.732 3.60914 18.8893 3.70965L30.0637 10.0462C30.7158 10.4025 31.0257 10.8777 31.035 11.4579V16.3279L29.6336 16.3234V12.2665C29.6336 11.933 29.5226 11.4533 29.0138 11.0558L18.9679 5.13046C18.436 4.8335 17.5942 4.74213 16.8403 5.13046Z" fill="#6D7885"/>
<path d="M18.9676 30.8695L18.9352 36L17.2841 32.6969C17.2008 32.5233 17.0805 32.3908 16.9233 32.2903L5.74887 25.9538C5.09672 25.5974 4.78684 25.1223 4.77759 24.5421V19.6721L6.17901 19.6766V23.7335C6.17901 24.067 6.29002 24.5467 6.79879 24.9441L16.84 30.8695C17.3766 31.1665 18.2183 31.2578 18.9676 30.8695Z" fill="#6D7885"/>
<path d="M6.21623 18.9275L0 18.9229L4.7408 16.9036L4.7778 12.0747C4.77318 11.2386 5.18019 10.5351 6.03585 9.9823L15.8088 4.19398L16.2066 3.95184V5.57824L7.07651 10.9554C6.50762 11.2798 6.23473 11.8006 6.24861 12.5178L6.21623 18.9275Z" fill="#6D7885"/>
<path d="M29.6009 17.0999L35.8171 17.1045L31.0763 19.1238L31.0393 23.9527C31.0439 24.7888 30.6369 25.4923 29.7812 26.0451L20.0083 31.8334L19.6151 32.0664V30.4492L28.7406 25.072C29.3095 24.7476 29.5824 24.2268 29.5685 23.5096L29.6009 17.0999Z" fill="#6D7885"/>
<path d="M28.0517 11.3985L18.8938 6.01226C18.2833 5.68789 17.5248 5.68789 16.9143 6.01226L7.75641 11.3985C7.22914 11.7138 7.01176 12.1524 6.98401 12.6595V23.3361C7.00713 23.8478 7.22914 24.2818 7.75641 24.597L16.9143 29.9833C17.5248 30.3077 18.2833 30.3077 18.8938 29.9833L28.0517 24.597C28.5789 24.2818 28.7963 23.8432 28.8241 23.3361V12.6595C28.8009 12.1524 28.5789 11.7183 28.0517 11.3985ZM9.08846 21.9427C8.35768 21.6321 8.34381 21.0062 8.8202 20.4351L9.02833 20.2387C9.12084 20.129 9.00058 19.9051 8.88495 19.6996C8.58894 18.6808 13.3945 15.8529 14.2317 15.6564C14.2317 15.6564 12.5712 16.8625 14.2872 18.3473C15.8736 19.7178 19.6107 19.8229 19.6107 19.8229C13.5194 19.8275 8.88495 20.1381 9.08846 21.9427ZM21.5163 18.3656C19.7402 18.4569 19.6107 19.1925 19.6107 19.1925C17.201 18.9823 16.1557 18.5757 16.1557 18.5757C17.5063 17.3468 21.5949 17.3285 24.7308 18.3656C24.7354 18.3656 24.3007 18.2239 21.5163 18.3656ZM17.3166 17.1321C16.9466 17.2097 15.647 17.461 15.1151 18.1189C15.1151 18.1189 14.486 17.7123 14.3797 17.3422C14.1391 16.4879 14.7312 15.7569 15.3602 15.6199C20.4664 14.5051 26.308 18.329 26.308 18.329C23.7179 17.3376 20.4756 16.4696 17.3166 17.1321ZM12.8904 15.5102C12.8904 15.5102 13.0152 15.0031 12.71 14.7701C12.2012 14.3818 10.8322 14.6605 10.8322 14.6605C17.9087 11.4351 25.4662 15.5194 27.9962 18.7996C27.9962 18.8041 19.8744 12.5133 12.8904 15.5102Z" fill="#6D7885"/>
<path d="M9.73593 19.0919C9.69893 19.069 9.5093 19.133 9.37054 19.3614C9.18091 19.6721 9.27341 19.9782 9.27341 19.9782C9.38442 19.9508 9.70818 19.736 9.73593 19.5944C9.77756 19.4025 9.79606 19.133 9.73593 19.0919Z" fill="#6D7885"/>
</svg>
