<svg width="115" height="36" viewBox="0 0 115 36" fill="none" xmlns="http://www.w3.org/2000/svg">
<g clip-path="url(#clip0)">
<path d="M16.6 5.13046L16.6364 0L18.2641 3.30305C18.3461 3.47665 18.4647 3.60914 18.6197 3.70964L29.6347 10.0462C30.2775 10.4025 30.583 10.8777 30.5921 11.4579V16.3279L29.2107 16.3234V12.2665C29.2107 11.933 29.1013 11.4533 28.5998 11.0558L18.6972 5.13046C18.1729 4.8335 17.3431 4.74213 16.6 5.13046Z" fill="#121C23"/>
<path d="M18.6972 30.8696L18.6653 36L17.0376 32.697C16.9556 32.5234 16.837 32.3909 16.682 32.2904L5.66702 25.9538C5.02418 25.5975 4.71871 25.1224 4.70959 24.5422V19.6721L6.09103 19.6767V23.7335C6.09103 24.067 6.20045 24.5467 6.70196 24.9442L16.6 30.8696C17.1288 31.1665 17.9586 31.2579 18.6972 30.8696Z" fill="#121C23"/>
<path d="M6.12755 18.9274L0 18.9228L4.67317 16.9035L4.70964 12.0746C4.70508 11.2385 5.10629 10.535 5.94974 9.98218L15.5833 4.19385L15.9754 3.95172V5.57812L6.97556 10.9553C6.41478 11.2796 6.14579 11.8005 6.15946 12.5177L6.12755 18.9274Z" fill="#121C23"/>
<path d="M29.1787 17.0999L35.3063 17.1045L30.6331 19.1238L30.5966 23.9527C30.6012 24.7888 30.2 25.4923 29.3565 26.0451L19.723 31.8334L19.3354 32.0664V30.4492L28.3307 25.072C28.8915 24.7477 29.1605 24.2268 29.1468 23.5096L29.1787 17.0999Z" fill="#121C23"/>
<path d="M27.6516 11.3985L18.6244 6.0122C18.0226 5.68783 17.2749 5.68783 16.6731 6.0122L7.64591 11.3985C7.12616 11.7137 6.91188 12.1523 6.88452 12.6594V23.3361C6.90732 23.8477 7.12616 24.2817 7.64591 24.597L16.6731 29.9833C17.2749 30.3076 18.0226 30.3076 18.6244 29.9833L27.6516 24.597C28.1714 24.2817 28.3857 23.8432 28.413 23.3361V12.6594C28.3902 12.1523 28.1714 11.7183 27.6516 11.3985ZM8.95895 21.9427C8.2386 21.632 8.22492 21.0061 8.69452 20.435L8.89968 20.2386C8.99087 20.1289 8.87233 19.9051 8.75835 19.6995C8.46656 18.6807 13.2036 15.8528 14.0288 15.6564C14.0288 15.6564 12.392 16.8625 14.0835 18.3472C15.6473 19.7178 19.3311 19.8229 19.3311 19.8229C13.3267 19.8274 8.75835 20.1381 8.95895 21.9427ZM21.2095 18.3655C19.4588 18.4569 19.3311 19.1924 19.3311 19.1924C16.9558 18.9822 15.9254 18.5756 15.9254 18.5756C17.2567 17.3467 21.287 17.3284 24.3781 18.3655C24.3827 18.3655 23.9541 18.2239 21.2095 18.3655ZM17.0697 17.132C16.705 17.2097 15.4239 17.4609 14.8996 18.1188C14.8996 18.1188 14.2795 17.7122 14.1747 17.3421C13.9376 16.4878 14.5212 15.7569 15.1412 15.6198C20.1746 14.5051 25.9328 18.3289 25.9328 18.3289C23.3797 17.3376 20.1837 16.4696 17.0697 17.132ZM12.7066 15.5102C12.7066 15.5102 12.8297 15.0031 12.5288 14.7701C12.0273 14.3817 10.6778 14.6604 10.6778 14.6604C17.6533 11.435 25.103 15.5193 27.5969 18.7995C27.5969 18.8041 19.591 12.5132 12.7066 15.5102Z" fill="#121C23"/>
<path d="M9.59717 19.0919C9.5607 19.0691 9.37377 19.133 9.237 19.3615C9.05007 19.6721 9.14125 19.9782 9.14125 19.9782C9.25068 19.9508 9.56982 19.7361 9.59717 19.5945C9.63821 19.4026 9.65644 19.133 9.59717 19.0919Z" fill="#121C23"/>
<path d="M44.675 7.223C45.8337 7.223 46.8017 7.652 47.579 8.51L47.018 9.016C46.38 8.356 45.599 8.026 44.675 8.026C43.817 8.026 43.091 8.32667 42.497 8.928C41.9103 9.522 41.617 10.2627 41.617 11.15C41.617 12.0373 41.9103 12.7817 42.497 13.383C43.091 13.977 43.817 14.274 44.675 14.274C45.6137 14.274 46.3947 13.944 47.018 13.284L47.579 13.812C46.809 14.6553 45.841 15.077 44.675 15.077C43.5897 15.077 42.6657 14.6957 41.903 13.933C41.1403 13.163 40.759 12.2353 40.759 11.15C40.759 10.0647 41.1403 9.14067 41.903 8.378C42.6657 7.608 43.5897 7.223 44.675 7.223ZM56.798 15H55.94V8.95L53.069 12.602L50.198 8.95V15H49.34V7.3H49.824L53.069 11.436L56.314 7.3H56.798V15ZM59.9284 8.378C60.6911 7.608 61.6151 7.223 62.7004 7.223C63.7857 7.223 64.7097 7.608 65.4724 8.378C66.2424 9.14067 66.6274 10.0647 66.6274 11.15C66.6274 12.2353 66.2424 13.163 65.4724 13.933C64.7097 14.6957 63.7857 15.077 62.7004 15.077C61.6151 15.077 60.6911 14.6957 59.9284 13.933C59.1657 13.163 58.7844 12.2353 58.7844 11.15C58.7844 10.0647 59.1657 9.14067 59.9284 8.378ZM64.8784 8.928C64.2844 8.32667 63.5584 8.026 62.7004 8.026C61.8424 8.026 61.1164 8.32667 60.5224 8.928C59.9357 9.522 59.6424 10.2627 59.6424 11.15C59.6424 12.0373 59.9357 12.7817 60.5224 13.383C61.1164 13.977 61.8424 14.274 62.7004 14.274C63.5584 14.274 64.2844 13.977 64.8784 13.383C65.4724 12.7817 65.7694 12.0373 65.7694 11.15C65.7694 10.2627 65.4724 9.522 64.8784 8.928ZM70.9287 8.103V15H70.0707V8.103H67.6837V7.3H73.3047V8.103H70.9287ZM75.0594 7.3H77.4904C78.4877 7.3 79.2981 7.553 79.9214 8.059C80.5447 8.565 80.8564 9.25433 80.8564 10.127C80.8564 10.9997 80.5447 11.689 79.9214 12.195C79.2981 12.701 78.4877 12.954 77.4904 12.954H75.9174V15H75.0594V7.3ZM75.9174 12.151H77.5454C78.2641 12.151 78.8581 11.9823 79.3274 11.645C79.8041 11.3077 80.0424 10.8017 80.0424 10.127C80.0424 9.45967 79.8041 8.95733 79.3274 8.62C78.8581 8.27533 78.2641 8.103 77.5454 8.103H75.9174V12.151ZM88.5782 15H87.7202V8.983L83.2322 15H82.7482V7.3H83.6062V13.317L88.1052 7.3H88.5782V15Z" fill="black"/>
<path d="M47.106 28H45.588V23.149L41.936 28H41.045V20.3H42.563V25.151L46.204 20.3H47.106V28ZM54.6644 23.325H55.6324C55.999 23.325 56.2594 23.2443 56.4134 23.083C56.5674 22.9143 56.6444 22.72 56.6444 22.5C56.6444 21.9353 56.285 21.653 55.5664 21.653H55.5114C55.2034 21.653 54.855 21.7227 54.4664 21.862C54.085 22.0013 53.755 22.1847 53.4764 22.412L52.4864 21.499C52.897 21.1103 53.3627 20.8023 53.8834 20.575C54.404 20.3403 54.9284 20.223 55.4564 20.223H55.5334C55.9294 20.2303 56.2814 20.2817 56.5894 20.377C56.9047 20.4723 57.1504 20.5933 57.3264 20.74C57.5097 20.8793 57.66 21.0443 57.7774 21.235C57.8947 21.4257 57.9717 21.6053 58.0084 21.774C58.0524 21.9427 58.0744 22.115 58.0744 22.291C58.0744 22.709 57.979 23.0757 57.7884 23.391C57.5977 23.7063 57.3447 23.9263 57.0294 24.051C57.4254 24.1463 57.737 24.3553 57.9644 24.678C58.199 25.0007 58.3164 25.3893 58.3164 25.844C58.3164 26.5113 58.0854 27.0503 57.6234 27.461C57.1687 27.8643 56.45 28.0697 55.4674 28.077H55.3904C54.811 28.077 54.2537 27.9487 53.7184 27.692C53.183 27.4353 52.721 27.0943 52.3324 26.669L53.3224 25.756C53.5937 26.02 53.9237 26.2363 54.3124 26.405C54.7084 26.5663 55.086 26.647 55.4454 26.647H55.5004C56.417 26.6323 56.8754 26.3097 56.8754 25.679C56.8754 25.415 56.7837 25.195 56.6004 25.019C56.4244 24.8357 56.1494 24.744 55.7754 24.744H54.6644V23.325ZM61.4296 26.592L60.8796 28H59.1966L62.3646 20.3H63.2556L66.3796 28H64.6966L64.1466 26.592H61.4296ZM62.7936 23.05L61.9576 25.151H63.6186L62.7936 23.05ZM73.7653 28H72.2473V21.73H69.3433V28H67.8253V20.3H73.7653V28ZM78.2681 28H76.5521L78.1361 25.217L75.3421 20.3H77.0691L79.0051 23.655L80.9301 20.3H82.6571L78.2681 28ZM86.9642 20.223C88.1082 20.223 89.0762 20.6483 89.8682 21.499L88.8782 22.412C88.3575 21.906 87.7195 21.653 86.9642 21.653C86.2822 21.653 85.7102 21.8877 85.2482 22.357C84.7935 22.8263 84.5662 23.424 84.5662 24.15C84.5662 24.8833 84.7935 25.4847 85.2482 25.954C85.7102 26.416 86.2822 26.647 86.9642 26.647C87.7342 26.647 88.3722 26.394 88.8782 25.888L89.8682 26.801C89.0762 27.6517 88.1082 28.077 86.9642 28.077C85.8788 28.077 84.9548 27.6957 84.1922 26.933C83.4295 26.163 83.0482 25.2353 83.0482 24.15C83.0482 23.0647 83.4295 22.1407 84.1922 21.378C84.9548 20.608 85.8788 20.223 86.9642 20.223ZM96.4621 28L94.8781 25.525C94.7021 25.2537 94.5481 25.0703 94.4161 24.975C94.2841 24.8797 94.0897 24.832 93.8331 24.832H93.1291V28H91.6111V20.3H93.1291V23.369H93.7891C94.0384 23.369 94.2291 23.3213 94.3611 23.226C94.5004 23.1307 94.6581 22.9473 94.8341 22.676L96.3521 20.3H98.0681L96.2531 23.138C95.8937 23.6293 95.5967 23.9373 95.3621 24.062C95.6407 24.1867 95.9524 24.5203 96.2971 25.063L98.1781 28H96.4621ZM101.358 26.592L100.808 28H99.1253L102.293 20.3H103.184L106.308 28H104.625L104.075 26.592H101.358ZM102.722 23.05L101.886 25.151H103.547L102.722 23.05ZM112.086 19.277C111.756 19.5923 111.349 19.75 110.865 19.75C110.381 19.75 109.971 19.5923 109.633 19.277C109.303 18.9617 109.138 18.5657 109.138 18.089H110.106C110.106 18.287 110.18 18.4557 110.326 18.595C110.473 18.727 110.653 18.793 110.865 18.793C111.078 18.793 111.258 18.727 111.404 18.595C111.558 18.4557 111.635 18.287 111.635 18.089H112.592C112.592 18.5657 112.424 18.9617 112.086 19.277ZM113.89 28H112.372V23.149L108.72 28H107.829V20.3H109.347V25.151L112.988 20.3H113.89V28Z" fill="#121C23"/>
</g>
<defs>
<clipPath id="clip0">
<rect width="115" height="36" fill="white"/>
</clipPath>
</defs>
</svg>
