<svg width="23" height="24" viewBox="0 0 23 24" fill="none" xmlns="http://www.w3.org/2000/svg">
<path d="M12.5 0C15.7505 0 18.7832 1.30257 21.0003 3.52875L21 2L21.0067 1.88338C21.0645 1.38604 21.4872 1 22 1C22.5523 1 23 1.44772 23 2V6L22.9933 6.11662C22.9355 6.61396 22.5128 7 22 7H18L17.8834 6.99327C17.386 6.93551 17 6.51284 17 6C17 5.44772 17.4477 5 18 5L19.6427 5.00037C17.7897 3.10803 15.2386 2 12.5 2C6.97715 2 2.5 6.47715 2.5 12C2.5 17.5228 6.97715 22 12.5 22C15.1897 22 17.7082 20.9345 19.5722 19.0699C19.9627 18.6793 20.5959 18.6792 20.9864 19.0697C21.377 19.4601 21.3771 20.0933 20.9867 20.4839C18.7513 22.72 15.7257 24 12.5 24C5.87258 24 0.5 18.6274 0.5 12C0.5 5.37258 5.87258 0 12.5 0ZM12 6C12.5523 6 13 6.44772 13 7V11.5858L15.7071 14.2929C16.0976 14.6834 16.0976 15.3166 15.7071 15.7071C15.3166 16.0976 14.6834 16.0976 14.2929 15.7071L11.2929 12.7071C11.1054 12.5196 11 12.2652 11 12V7C11 6.44772 11.4477 6 12 6Z" fill="white"/>
</svg>
