<svg width="24" height="24" viewBox="0 0 24 24" fill="none" xmlns="http://www.w3.org/2000/svg">
<path d="M6.34338 17.6569C5.95285 17.2663 5.95285 16.6332 6.34338 16.2426L16.2429 6.34315C16.6334 5.95262 17.2666 5.95262 17.6571 6.34315C18.0476 6.73367 18.0476 7.36684 17.6571 7.75736L7.75759 17.6569C7.36707 18.0474 6.7339 18.0474 6.34338 17.6569Z" fill="white"/>
<path d="M17.6571 17.6569C17.2666 18.0474 16.6334 18.0474 16.2429 17.6569L6.34338 7.75736C5.95285 7.36684 5.95285 6.73367 6.34338 6.34315C6.7339 5.95262 7.36707 5.95262 7.75759 6.34315L17.6571 16.2426C18.0476 16.6332 18.0476 17.2663 17.6571 17.6569Z" fill="white"/>
</svg>
