<svg width="16" height="16" viewBox="0 0 16 16" fill="none" xmlns="http://www.w3.org/2000/svg">
<path fill-rule="evenodd" clip-rule="evenodd" d="M10.9131 1.70968H3.10877C2.33231 1.70968 1.70416 2.34203 1.70975 3.11918L1.7825 12.9123C1.7881 13.681 2.41276 14.3008 3.18151 14.3008H12.8913C13.6643 14.3008 14.2904 13.6747 14.2904 12.9018V5.08689C14.2904 4.71615 14.1428 4.36011 13.8805 4.09779L11.9022 2.11959C11.6399 1.85727 11.2846 1.70968 10.9131 1.70968Z" stroke="white" stroke-width="1.5" stroke-linecap="round" stroke-linejoin="round"/>
<path d="M10.7936 1.70968V4.44405C10.7936 4.83017 10.4802 5.14355 10.094 5.14355H5.89702C5.51089 5.14355 5.19751 4.83017 5.19751 4.44405V1.70968" stroke="white" stroke-width="1.5" stroke-linecap="round" stroke-linejoin="round"/>
<path d="M4.50281 14.3008V8.9048C4.50281 8.40815 4.90572 8.00523 5.40237 8.00523H10.599C11.0949 8.00523 11.4979 8.40815 11.4979 8.9048V14.3008" stroke="white" stroke-width="1.5" stroke-linecap="round" stroke-linejoin="round"/>
</svg>
