<svg width="24" height="24" viewBox="0 0 24 24" fill="none" xmlns="http://www.w3.org/2000/svg">
<path fill-rule="evenodd" clip-rule="evenodd" d="M10.8333 20.1643V6.75351C10.8333 5.94851 10.4192 5.20068 9.73667 4.77484L5.07 1.85818C3.516 0.887509 1.5 2.00401 1.5 3.83684V17.2465C1.5 18.0515 1.91417 18.7993 2.59667 19.2252L7.26333 22.1418C8.81733 23.1137 10.8333 21.996 10.8333 20.1643Z" stroke="#3F8AE0" stroke-width="2" stroke-linecap="round" stroke-linejoin="round"/>
<path d="M22.5 10.8333H15.5" stroke="#3F8AE0" stroke-width="2" stroke-linecap="round" stroke-linejoin="round"/>
<path d="M17.8333 8.5L15.5 10.8333L17.8333 13.1667" stroke="#3F8AE0" stroke-width="2" stroke-linecap="round" stroke-linejoin="round"/>
<path d="M10.8334 20.1667H15.5C16.7892 20.1667 17.8334 19.1225 17.8334 17.8333V16.6667" stroke="#3F8AE0" stroke-width="2" stroke-linecap="round" stroke-linejoin="round"/>
<path d="M17.8334 5V3.83333C17.8334 2.54417 16.7892 1.5 15.5 1.5H3.83337" stroke="#3F8AE0" stroke-width="2" stroke-linecap="round" stroke-linejoin="round"/>
</svg>
