<svg width="24" height="22" viewBox="0 0 24 22" fill="none" xmlns="http://www.w3.org/2000/svg">
<path fill-rule="evenodd" clip-rule="evenodd" d="M0.536876 10.4989C0.536876 4.83902 5.82589 0.5 12.0185 0.5C18.211 0.5 23.5 4.83902 23.5 10.4989C23.5 16.1589 18.211 20.4979 12.0185 20.4979C10.6453 20.4979 9.32543 20.288 8.10046 19.9013C6.65562 21.2498 4.55631 21.898 1.98829 21.9989C0.942189 22.04 0.187134 20.9519 0.625161 19.978C1.24656 18.5866 2.04946 16.9915 2.14467 15.6002C1.12784 14.1195 0.536876 12.3721 0.536876 10.4989ZM12.0185 2.5C6.63339 2.5 2.53688 6.21891 2.53688 10.4989C2.53688 12.0359 3.05151 13.4778 3.95874 14.6996C4.08676 14.872 4.15588 15.081 4.15588 15.2957C4.15588 16.9295 3.50461 18.471 2.84145 19.9339C4.89752 19.7155 6.24636 19.0571 7.05971 18.1C7.33288 17.7786 7.77839 17.6631 8.17331 17.8114C9.34551 18.2516 10.6458 18.4979 12.0185 18.4979C17.4035 18.4979 21.5 14.779 21.5 10.4989C21.5 6.21891 17.4035 2.5 12.0185 2.5Z" fill="#3F8AE0"/>
</svg>
