<svg width="24" height="24" viewBox="0 0 24 24" fill="none" xmlns="http://www.w3.org/2000/svg">
<path fill-rule="evenodd" clip-rule="evenodd" d="M10.8333 20.624V6.75351C10.8333 5.94851 10.4192 5.20068 9.73667 4.77484L5.07 1.85818C3.516 0.887509 1.5 2.00401 1.5 3.83684V17.7062C1.5 18.5112 1.91417 19.259 2.59667 19.6848L7.26333 22.6015C8.81733 23.5733 10.8333 22.4557 10.8333 20.624Z" stroke="#3F8AE0" stroke-width="2" stroke-linecap="round" stroke-linejoin="round"/>
<path d="M15.5 10.8333H22.5" stroke="#3F8AE0" stroke-width="2" stroke-linecap="round" stroke-linejoin="round"/>
<path d="M20.1667 13.1667L22.5001 10.8333L20.1667 8.5" stroke="#3F8AE0" stroke-width="2" stroke-linecap="round" stroke-linejoin="round"/>
<path d="M10.8333 20.1667H15.4999C16.7891 20.1667 17.8333 19.1225 17.8333 17.8333V16.6667" stroke="#3F8AE0" stroke-width="2" stroke-linecap="round" stroke-linejoin="round"/>
<path d="M17.8333 5V3.83333C17.8333 2.54417 16.7891 1.5 15.4999 1.5H3.83325" stroke="#3F8AE0" stroke-width="2" stroke-linecap="round" stroke-linejoin="round"/>
</svg>
