<svg width="16" height="16" viewBox="0 0 16 16" fill="none" xmlns="http://www.w3.org/2000/svg">
<path fill-rule="evenodd" clip-rule="evenodd" d="M8 16C12.4183 16 16 12.4183 16 8C16 3.58172 12.4183 0 8 0C3.58172 0 0 3.58172 0 8C0 12.4183 3.58172 16 8 16ZM13 7.02756C13 5.35548 11.7461 4 10.1992 4C9.37051 4 8.63414 4.42173 8 5.23767C7.36587 4.42173 6.62949 4 5.80075 4C4.25394 4 3 5.35548 3 7.02756C3 8.71615 3.62586 9.56278 6.2805 11.7947L7.48838 12.8102C7.78931 13.0633 8.21069 13.0633 8.51162 12.8102L9.7195 11.7947C12.3741 9.56278 13 8.71615 13 7.02756Z" fill="#E64646"/>
</svg>
