<svg width="14" height="14" viewBox="0 0 14 14" fill="none" xmlns="http://www.w3.org/2000/svg">
<path d="M12.4016 0.56989L13.4301 1.59839C14.19 2.35824 14.19 3.59021 13.4301 4.35006L11.6743 6.10582L4.63497 13.1452C4.08764 13.6925 3.34531 14 2.57128 14H1.32958C0.595273 14 0 13.4047 0 12.6704V11.4288C0 10.6547 0.307516 9.91231 0.854894 9.36496L7.89445 2.32579L7.89418 2.32565L9.64994 0.56989C10.4098 -0.189963 11.6418 -0.189963 12.4016 0.56989ZM8.75576 3.29894L1.77209 10.2822C1.46799 10.5863 1.29715 10.9987 1.29715 11.4288V12.6704C1.29715 12.6883 1.31167 12.7029 1.32958 12.7029H2.57128C3.0013 12.7029 3.4137 12.532 3.71778 12.228L10.7015 5.24467L8.75576 3.29894ZM10.5672 1.48711L9.72862 2.32565L11.6743 4.27138L12.5129 3.43284C12.7662 3.17955 12.7662 2.7689 12.5129 2.51561L11.4844 1.48711C11.2311 1.23383 10.8204 1.23383 10.5672 1.48711Z" fill="white"/>
</svg>
