<svg width="21" height="22" viewBox="0 0 21 22" fill="none" xmlns="http://www.w3.org/2000/svg">
<path d="M13.72 0.5C19.6 0.5 21 1.9 21 7.78V14.22C21 20.1 19.6 21.5 13.72 21.5H7.28C1.4 21.5 0 20.1 0 14.22V7.78C0 1.9 1.4 0.5 7.28 0.5H13.72Z" fill="white"/>
<path d="M5.46885 7.0625H3.9376C3.5001 7.0625 3.4126 7.26845 3.4126 7.49556C3.4126 7.90114 3.93173 9.91273 5.82974 12.5732C7.09508 14.3901 8.87785 15.375 10.5001 15.375C11.4734 15.375 11.5939 15.1563 11.5939 14.7795V13.4063C11.5939 12.9688 11.6861 12.8814 11.9943 12.8814C12.2214 12.8814 12.6107 12.995 13.5192 13.871C14.5574 14.9092 14.7286 15.375 15.3126 15.375H16.8439C17.2814 15.375 17.5001 15.1562 17.3739 14.7246C17.2358 14.2943 16.7401 13.6701 16.0824 12.9301C15.7255 12.5083 15.1901 12.0541 15.0279 11.827C14.8008 11.535 14.8657 11.4052 15.0279 11.1456L15.0551 11.107C15.2859 10.7791 16.9074 8.45386 17.0882 7.62537C17.1855 7.30091 17.0882 7.0625 16.6251 7.0625H15.0939C14.7045 7.0625 14.525 7.26845 14.4277 7.49556C14.4277 7.49556 13.649 9.3936 12.5458 10.6265C12.189 10.9834 12.0267 11.0969 11.832 11.0969C11.7347 11.0969 11.5938 10.9834 11.5938 10.659V7.62537C11.5938 7.23602 11.4808 7.0625 11.1564 7.0625H8.7501C8.50679 7.0625 8.36047 7.24321 8.36047 7.41447C8.36047 7.78356 8.912 7.86868 8.96885 8.90693V11.1619C8.96885 11.6563 8.87957 11.7459 8.6849 11.7459C8.16579 11.7459 6.90308 9.83936 6.15417 7.6578C6.0074 7.23378 5.8602 7.0625 5.46885 7.0625Z" fill="#3F8AE0"/>
</svg>
